<svg xmlns="http://www.w3.org/2000/svg" id="Livello_1" data-name="Livello 1" viewBox="0 0 320.33 163.5"><defs><style>.cls-1,.cls-2{fill:none;stroke:#212121;stroke-miterlimit:10}.cls-1{stroke-width:5px}.cls-2{stroke-width:10px}</style></defs><title>burger-menu</title><rect width="313.63" height="4.32" x="3.34" y="109.1" class="cls-1"/><path d="M2.9,52.58C22.31,66.43,43.81,75.93,65.8,74.16c28.48-2.28,36.11-21.71,62.9-21.58,28.41.14,34.09,22,62.47,22.2,27,.14,34.69-19.63,63.33-21.89,20.84-1.64,42,6.83,62.9,21.89" class="cls-2"/><rect width="313.63" height="4.32" x="3.34" y="156.68" class="cls-1"/><path d="M2.9,5C22.31,18.85,43.81,28.35,65.8,26.58,94.28,24.3,101.91,4.87,128.7,5c28.41.14,34.09,22.05,62.47,22.2,27,.14,34.69-19.63,63.33-21.89,20.84-1.64,42,6.83,62.9,21.89" class="cls-2"/></svg>